<svg width="8" height="8" viewBox="0 0 8 8" fill="none" xmlns="http://www.w3.org/2000/svg">
<path fill-rule="evenodd" clip-rule="evenodd" d="M1.44364 2.62508C1.26364 3.00075 1.32697 3.44042 1.45364 4.31942L1.54631 4.96508C1.70864 6.09442 1.78997 6.65875 2.18164 6.99608C2.57331 7.33342 3.14764 7.33342 4.29664 7.33342H5.03397C6.18297 7.33342 6.75731 7.33342 7.14897 6.99608C7.54064 6.65875 7.62197 6.09442 7.78431 4.96508L7.87731 4.31942C8.00397 3.44042 8.06731 3.00075 7.88697 2.62508C7.70664 2.24941 7.32331 2.02075 6.55631 1.56408L6.09464 1.28908C5.39864 0.874081 5.04997 0.666748 4.66531 0.666748C4.28064 0.666748 3.93231 0.874081 3.23597 1.28908L2.77431 1.56408C2.00764 2.02075 1.62397 2.24941 1.44364 2.62508ZM4.66531 6.25008C4.599 6.25008 4.53541 6.22374 4.48853 6.17686C4.44164 6.12997 4.41531 6.06639 4.41531 6.00008V5.00008C4.41531 4.93378 4.44164 4.87019 4.48853 4.82331C4.53541 4.77642 4.599 4.75008 4.66531 4.75008C4.73161 4.75008 4.7952 4.77642 4.84208 4.82331C4.88897 4.87019 4.91531 4.93378 4.91531 5.00008V6.00008C4.91531 6.06639 4.88897 6.12997 4.84208 6.17686C4.7952 6.22374 4.73161 6.25008 4.66531 6.25008Z" fill="url(#paint0_linear_2049_8260)" fill-opacity="0.8"/>
<defs>
<linearGradient id="paint0_linear_2049_8260" x1="4.66544" y1="0.666748" x2="4.66544" y2="7.33342" gradientUnits="userSpaceOnUse">
<stop stop-color="#D7DEF1"/>
<stop offset="1" stop-color="#6984D0" stop-opacity="0.83"/>
</linearGradient>
</defs>
</svg>
