<svg width="12" height="12" viewBox="0 0 12 12" fill="none" xmlns="http://www.w3.org/2000/svg">
<path fill-rule="evenodd" clip-rule="evenodd" d="M5.64646 5.37492C6.47811 5.37492 7.1523 4.722 7.1523 3.91659C7.1523 3.11117 6.47811 2.45825 5.64646 2.45825C4.81481 2.45825 4.14062 3.11117 4.14062 3.91659C4.14062 4.722 4.81481 5.37492 5.64646 5.37492Z" stroke="#B0B2C4" stroke-linecap="round" stroke-linejoin="round"/>
<path fill-rule="evenodd" clip-rule="evenodd" d="M5.64646 5.37492C6.47811 5.37492 7.1523 4.722 7.1523 3.91659C7.1523 3.11117 6.47811 2.45825 5.64646 2.45825C4.81481 2.45825 4.14062 3.11117 4.14062 3.91659C4.14062 4.722 4.81481 5.37492 5.64646 5.37492Z" stroke="#B0B2C4" stroke-linecap="round" stroke-linejoin="round"/>
<path fill-rule="evenodd" clip-rule="evenodd" d="M5.64646 5.37492C6.47811 5.37492 7.1523 4.722 7.1523 3.91659C7.1523 3.11117 6.47811 2.45825 5.64646 2.45825C4.81481 2.45825 4.14062 3.11117 4.14062 3.91659C4.14062 4.722 4.81481 5.37492 5.64646 5.37492Z" stroke="#B0B2C4" stroke-linecap="round" stroke-linejoin="round"/>
<path fill-rule="evenodd" clip-rule="evenodd" d="M5.64646 5.37492C6.47811 5.37492 7.1523 4.722 7.1523 3.91659C7.1523 3.11117 6.47811 2.45825 5.64646 2.45825C4.81481 2.45825 4.14062 3.11117 4.14062 3.91659C4.14062 4.722 4.81481 5.37492 5.64646 5.37492Z" stroke="#B0B2C4" stroke-linecap="round" stroke-linejoin="round"/>
<path fill-rule="evenodd" clip-rule="evenodd" d="M5.64646 5.37492C6.47811 5.37492 7.1523 4.722 7.1523 3.91659C7.1523 3.11117 6.47811 2.45825 5.64646 2.45825C4.81481 2.45825 4.14062 3.11117 4.14062 3.91659C4.14062 4.722 4.81481 5.37492 5.64646 5.37492Z" stroke="#B0B2C4" stroke-linecap="round" stroke-linejoin="round"/>
<path fill-rule="evenodd" clip-rule="evenodd" d="M5.64646 5.37492C6.47811 5.37492 7.1523 4.722 7.1523 3.91659C7.1523 3.11117 6.47811 2.45825 5.64646 2.45825C4.81481 2.45825 4.14062 3.11117 4.14062 3.91659C4.14062 4.722 4.81481 5.37492 5.64646 5.37492Z" stroke="#B0B2C4" stroke-linecap="round" stroke-linejoin="round"/>
<path fill-rule="evenodd" clip-rule="evenodd" d="M5.64646 5.37492C6.47811 5.37492 7.1523 4.722 7.1523 3.91659C7.1523 3.11117 6.47811 2.45825 5.64646 2.45825C4.81481 2.45825 4.14062 3.11117 4.14062 3.91659C4.14062 4.722 4.81481 5.37492 5.64646 5.37492Z" stroke="#B0B2C4" stroke-linecap="round" stroke-linejoin="round"/>
<path fill-rule="evenodd" clip-rule="evenodd" d="M5.64851 1.20825C7.27742 1.20848 8.59779 2.48739 8.59779 4.06492C8.59779 5.4045 6.47155 8.72534 5.82964 9.697C5.79009 9.75678 5.72182 9.79294 5.64851 9.79294C5.57519 9.79294 5.50693 9.75678 5.46738 9.697C4.82546 8.72534 2.69922 5.40534 2.69922 4.06492C2.6991 3.30732 3.00978 2.58072 3.56289 2.04498C4.116 1.50923 4.86623 1.20825 5.64851 1.20825V1.20825Z" stroke="#B0B2C4" stroke-linecap="round" stroke-linejoin="round"/>
<path fill-rule="evenodd" clip-rule="evenodd" d="M5.64851 1.20825C7.27742 1.20848 8.59779 2.48739 8.59779 4.06492C8.59779 5.4045 6.47155 8.72534 5.82964 9.697C5.79009 9.75678 5.72182 9.79294 5.64851 9.79294C5.57519 9.79294 5.50693 9.75678 5.46738 9.697C4.82546 8.72534 2.69922 5.40534 2.69922 4.06492C2.6991 3.30732 3.00978 2.58072 3.56289 2.04498C4.116 1.50923 4.86623 1.20825 5.64851 1.20825V1.20825Z" stroke="#B0B2C4" stroke-linecap="round" stroke-linejoin="round"/>
<path fill-rule="evenodd" clip-rule="evenodd" d="M5.64851 1.20825C7.27742 1.20848 8.59779 2.48739 8.59779 4.06492C8.59779 5.4045 6.47155 8.72534 5.82964 9.697C5.79009 9.75678 5.72182 9.79294 5.64851 9.79294C5.57519 9.79294 5.50693 9.75678 5.46738 9.697C4.82546 8.72534 2.69922 5.40534 2.69922 4.06492C2.6991 3.30732 3.00978 2.58072 3.56289 2.04498C4.116 1.50923 4.86623 1.20825 5.64851 1.20825V1.20825Z" stroke="#B0B2C4" stroke-linecap="round" stroke-linejoin="round"/>
<path fill-rule="evenodd" clip-rule="evenodd" d="M5.64851 1.20825C7.27742 1.20848 8.59779 2.48739 8.59779 4.06492C8.59779 5.4045 6.47155 8.72534 5.82964 9.697C5.79009 9.75678 5.72182 9.79294 5.64851 9.79294C5.57519 9.79294 5.50693 9.75678 5.46738 9.697C4.82546 8.72534 2.69922 5.40534 2.69922 4.06492C2.6991 3.30732 3.00978 2.58072 3.56289 2.04498C4.116 1.50923 4.86623 1.20825 5.64851 1.20825V1.20825Z" stroke="#B0B2C4" stroke-linecap="round" stroke-linejoin="round"/>
<path fill-rule="evenodd" clip-rule="evenodd" d="M5.64851 1.20825C7.27742 1.20848 8.59779 2.48739 8.59779 4.06492C8.59779 5.4045 6.47155 8.72534 5.82964 9.697C5.79009 9.75678 5.72182 9.79294 5.64851 9.79294C5.57519 9.79294 5.50693 9.75678 5.46738 9.697C4.82546 8.72534 2.69922 5.40534 2.69922 4.06492C2.6991 3.30732 3.00978 2.58072 3.56289 2.04498C4.116 1.50923 4.86623 1.20825 5.64851 1.20825V1.20825Z" stroke="#B0B2C4" stroke-linecap="round" stroke-linejoin="round"/>
<path fill-rule="evenodd" clip-rule="evenodd" d="M5.64851 1.20825C7.27742 1.20848 8.59779 2.48739 8.59779 4.06492C8.59779 5.4045 6.47155 8.72534 5.82964 9.697C5.79009 9.75678 5.72182 9.79294 5.64851 9.79294C5.57519 9.79294 5.50693 9.75678 5.46738 9.697C4.82546 8.72534 2.69922 5.40534 2.69922 4.06492C2.6991 3.30732 3.00978 2.58072 3.56289 2.04498C4.116 1.50923 4.86623 1.20825 5.64851 1.20825V1.20825Z" stroke="#B0B2C4" stroke-linecap="round" stroke-linejoin="round"/>
<path fill-rule="evenodd" clip-rule="evenodd" d="M5.64851 1.20825C7.27742 1.20848 8.59779 2.48739 8.59779 4.06492C8.59779 5.4045 6.47155 8.72534 5.82964 9.697C5.79009 9.75678 5.72182 9.79294 5.64851 9.79294C5.57519 9.79294 5.50693 9.75678 5.46738 9.697C4.82546 8.72534 2.69922 5.40534 2.69922 4.06492C2.6991 3.30732 3.00978 2.58072 3.56289 2.04498C4.116 1.50923 4.86623 1.20825 5.64851 1.20825V1.20825Z" stroke="#B0B2C4" stroke-linecap="round" stroke-linejoin="round"/>
<path d="M7.79816 9.20825C9.45372 9.34325 10.5947 9.62867 10.5947 9.95825C10.5947 10.4187 8.37984 10.7916 5.64697 10.7916C2.91409 10.7916 0.699219 10.4187 0.699219 9.95825C0.699219 9.62909 1.8329 9.3445 3.4777 9.20825" stroke="#B0B2C4" stroke-linecap="round" stroke-linejoin="round"/>
<path d="M7.79816 9.20825C9.45372 9.34325 10.5947 9.62867 10.5947 9.95825C10.5947 10.4187 8.37984 10.7916 5.64697 10.7916C2.91409 10.7916 0.699219 10.4187 0.699219 9.95825C0.699219 9.62909 1.8329 9.3445 3.4777 9.20825" stroke="#B0B2C4" stroke-linecap="round" stroke-linejoin="round"/>
<path d="M7.79816 9.20825C9.45372 9.34325 10.5947 9.62867 10.5947 9.95825C10.5947 10.4187 8.37984 10.7916 5.64697 10.7916C2.91409 10.7916 0.699219 10.4187 0.699219 9.95825C0.699219 9.62909 1.8329 9.3445 3.4777 9.20825" stroke="#B0B2C4" stroke-linecap="round" stroke-linejoin="round"/>
<path d="M7.79816 9.20825C9.45372 9.34325 10.5947 9.62867 10.5947 9.95825C10.5947 10.4187 8.37984 10.7916 5.64697 10.7916C2.91409 10.7916 0.699219 10.4187 0.699219 9.95825C0.699219 9.62909 1.8329 9.3445 3.4777 9.20825" stroke="#B0B2C4" stroke-linecap="round" stroke-linejoin="round"/>
<path d="M7.79816 9.20825C9.45372 9.34325 10.5947 9.62867 10.5947 9.95825C10.5947 10.4187 8.37984 10.7916 5.64697 10.7916C2.91409 10.7916 0.699219 10.4187 0.699219 9.95825C0.699219 9.62909 1.8329 9.3445 3.4777 9.20825" stroke="#B0B2C4" stroke-linecap="round" stroke-linejoin="round"/>
<path d="M7.79816 9.20825C9.45372 9.34325 10.5947 9.62867 10.5947 9.95825C10.5947 10.4187 8.37984 10.7916 5.64697 10.7916C2.91409 10.7916 0.699219 10.4187 0.699219 9.95825C0.699219 9.62909 1.8329 9.3445 3.4777 9.20825" stroke="#B0B2C4" stroke-linecap="round" stroke-linejoin="round"/>
<path d="M7.79816 9.20825C9.45372 9.34325 10.5947 9.62867 10.5947 9.95825C10.5947 10.4187 8.37984 10.7916 5.64697 10.7916C2.91409 10.7916 0.699219 10.4187 0.699219 9.95825C0.699219 9.62909 1.8329 9.3445 3.4777 9.20825" stroke="#B0B2C4" stroke-linecap="round" stroke-linejoin="round"/>
</svg>
